<mxfile host="app.diagrams.net" modified="2025-08-20T18:57:34.857115Z" agent="Mozilla/5.0" version="24.7.7" editor="draw.io">
  <diagram id="diagram-1" name="AWS Architecture">
    <mxGraphModel dx="1280" dy="720" grid="1" gridSize="10" guides="1" tooltips="1" connect="1" arrows="1" fold="1" page="1" pageScale="1" pageWidth="1600" pageHeight="1000" math="0" shadow="0">
      <root>
        <mxCell id="0"/>
        <mxCell id="1" parent="0"/>
        <mxCell id="vpc" value="VPC 10.0.0.0/16" style="rounded=1;whiteSpace=wrap;html=1;strokeColor=#006699;fillColor=#dae8fc;" vertex="1" parent="1">
          <mxGeometry x="20" y="20" width="1200" height="700" as="geometry"/>
        </mxCell>
        <mxCell id="subnet_pub" value="Public Subnet 10.0.1.0/24" style="rounded=1;whiteSpace=wrap;html=1;strokeColor=#60a917;fillColor=#d5e8d4;" vertex="1" parent="vpc">
          <mxGeometry x="40" y="60" width="560" height="620" as="geometry"/>
        </mxCell>
        <mxCell id="subnet_priv" value="Private Subnet 10.0.2.0/24" style="rounded=1;whiteSpace=wrap;html=1;strokeColor=#b85450;fillColor=#f8cecc;" vertex="1" parent="vpc">
          <mxGeometry x="640" y="60" width="560" height="620" as="geometry"/>
        </mxCell>
        <mxCell id="igw" value="Internet Gateway" style="rounded=1;whiteSpace=wrap;html=1;fillColor=#fff2cc;" vertex="1" parent="subnet_pub">
          <mxGeometry x="60" y="80" width="150" height="60" as="geometry"/>
        </mxCell>
        <mxCell id="alb" value="Application Load Balancer" style="rounded=1;whiteSpace=wrap;html=1;fillColor=#fff2cc;" vertex="1" parent="subnet_pub">
          <mxGeometry x="240" y="140" width="220" height="60" as="geometry"/>
        </mxCell>
        <mxCell id="nat" value="NAT Gateway" style="rounded=1;whiteSpace=wrap;html=1;fillColor=#fff2cc;" vertex="1" parent="subnet_pub">
          <mxGeometry x="480" y="80" width="100" height="60" as="geometry"/>
        </mxCell>
        <mxCell id="ec2" value="EC2 Auto Scaling Group" style="rounded=1;whiteSpace=wrap;html=1;fillColor=#e1d5e7;" vertex="1" parent="subnet_priv">
          <mxGeometry x="700" y="160" width="240" height="80" as="geometry"/>
        </mxCell>
        <mxCell id="rds" value="RDS (Private)" style="rounded=1;whiteSpace=wrap;html=1;fillColor=#ffe6cc;" vertex="1" parent="subnet_priv">
          <mxGeometry x="980" y="380" width="180" height="80" as="geometry"/>
        </mxCell>
        <mxCell id="s3" value="S3 Bucket" style="rounded=1;whiteSpace=wrap;html=1;fillColor=#d5e8d4;" vertex="1" parent="subnet_priv">
          <mxGeometry x="880" y="560" width="140" height="60" as="geometry"/>
        </mxCell>
        <mxCell id="cloudtrail" value="CloudTrail / CloudWatch" style="rounded=1;whiteSpace=wrap;html=1;fillColor=#dae8fc;" vertex="1" parent="1">
          <mxGeometry x="520" y="720" width="260" height="60" as="geometry"/>
        </mxCell>
        <mxCell id="user" value="User / Internet" style="rounded=1;whiteSpace=wrap;html=1;fillColor=#ffffff;" vertex="1" parent="1">
          <mxGeometry x="60" y="720" width="180" height="60" as="geometry"/>
        </mxCell>
        <mxCell id="e1" style="edgeStyle=orthogonalEdgeStyle;rounded=1;" edge="1" parent="1" source="user" target="igw">
          <mxGeometry relative="1" as="geometry"/>
        </mxCell>
        <mxCell id="e2" style="edgeStyle=orthogonalEdgeStyle;rounded=1;" edge="1" parent="subnet_pub" source="igw" target="alb">
          <mxGeometry relative="1" as="geometry"/>
        </mxCell>
        <mxCell id="e3" style="edgeStyle=orthogonalEdgeStyle;rounded=1;" edge="1" parent="vpc" source="alb" target="ec2">
          <mxGeometry relative="1" as="geometry"/>
        </mxCell>
        <mxCell id="e4" style="edgeStyle=orthogonalEdgeStyle;rounded=1;" edge="1" parent="subnet_priv" source="ec2" target="rds">
          <mxGeometry relative="1" as="geometry"/>
        </mxCell>
        <mxCell id="e5" style="edgeStyle=orthogonalEdgeStyle;rounded=1;" edge="1" parent="subnet_priv" source="ec2" target="s3">
          <mxGeometry relative="1" as="geometry"/>
        </mxCell>
        <mxCell id="e6" style="edgeStyle=orthogonalEdgeStyle;rounded=1;" edge="1" parent="vpc" source="ec2" target="nat">
          <mxGeometry relative="1" as="geometry"/>
        </mxCell>
        <mxCell id="e7" style="edgeStyle=orthogonalEdgeStyle;rounded=1;" edge="1" parent="subnet_pub" source="nat" target="igw">
          <mxGeometry relative="1" as="geometry"/>
        </mxCell>
        <mxCell id="e8" style="edgeStyle=orthogonalEdgeStyle;rounded=1;" edge="1" parent="1" source="vpc" target="cloudtrail">
          <mxGeometry relative="1" as="geometry"/>
        </mxCell>
      </root>
    </mxGraphModel>
  </diagram>
</mxfile>
